<?xml version="1.0" standalone="no"?>
<!DOCTYPE svg PUBLIC "-//W3C//DTD SVG 20010904//EN"
 "http://www.w3.org/TR/2001/REC-SVG-20010904/DTD/svg10.dtd">
<svg version="1.0" xmlns="http://www.w3.org/2000/svg"
 width="1280.000000pt" height="1280.000000pt" viewBox="0 0 1280.000000 1280.000000"
 preserveAspectRatio="xMidYMid meet">
<metadata>
Created by potrace 1.15, written by Peter Selinger 2001-2017
</metadata>
<g transform="translate(0.000000,1280.000000) scale(0.100000,-0.100000)"
fill="#000000" stroke="none">
<path d="M6335 12360 c-516 -49 -1002 -220 -1425 -502 -175 -116 -281 -200
-419 -333 -193 -185 -350 -375 -478 -579 -474 -754 -590 -1678 -313 -2516 26
-80 241 -676 478 -1325 1892 -5186 2434 -6670 2436 -6672 2 -2 204 547 449
1219 245 673 890 2440 1433 3928 542 1488 1004 2757 1026 2820 328 963 133
2036 -516 2840 -100 125 -313 336 -446 443 -441 355 -936 572 -1505 658 -157
23 -560 34 -720 19z m498 -1415 c381 -67 721 -314 901 -654 158 -301 190 -666
85 -986 -153 -465 -564 -804 -1051 -865 -295 -37 -607 38 -861 207 -95 63
-249 213 -320 310 -238 331 -301 753 -172 1140 65 195 159 347 305 493 184
185 418 308 673 355 102 18 333 18 440 0z"/>
</g>
</svg>
